<?xml version="1.0" encoding="UTF-8"?>
<svg width="60px" height="6px" viewBox="0 0 60 6" version="1.1" xmlns="http://www.w3.org/2000/svg" xmlns:xlink="http://www.w3.org/1999/xlink">
    <!-- Generator: Sketch 51.2 (57519) - http://www.bohemiancoding.com/sketch -->
    <title>6/flat</title>
    <desc>Created with Sketch.</desc>
    <defs></defs>
    <g id="6/flat" stroke="none" stroke-width="1" fill="none" fill-rule="evenodd">
        <path d="M47.5,0.5 L42.5,0.5 L42.5,2.5 L37.5,2.5 L37.5,0.5 L32.5,0.5 L32.5,2.5 L27.5,2.5 L27.5,0.5 L22.5,0.5 L22.5,2.5 L17.5,2.5 L17.5,0.5 L12.5,0.5 L12.5,2.5 L7.5,2.5 L7.5,0.5 L2.5,0.5 L2.5,2.5 L0.5,2.5 L0.5,5.5 L59.5,5.5 L59.5,2.5 L57.5,2.5 L57.5,0.5 L52.5,0.5 L52.5,2.5 L47.5,2.5 L47.5,0.5 Z" id="Combined-Shape" stroke="#EB3636" fill="#FF5E5E"></path>
    </g>
</svg>