<?xml version="1.0" encoding="UTF-8"?>
<svg width="60px" height="15px" viewBox="0 0 60 15" version="1.1" xmlns="http://www.w3.org/2000/svg" xmlns:xlink="http://www.w3.org/1999/xlink">
    <!-- Generator: Sketch 51.2 (57519) - http://www.bohemiancoding.com/sketch -->
    <title>6/gray</title>
    <desc>Created with Sketch.</desc>
    <defs></defs>
    <g id="6/gray" stroke="none" stroke-width="1" fill="none" fill-rule="evenodd">
        <path d="M47.5,0.5 L42.5,0.5 L42.5,2.5 L37.5,2.5 L37.5,0.5 L32.5,0.5 L32.5,2.5 L27.5,2.5 L27.5,0.5 L22.5,0.5 L22.5,2.5 L20.5,2.5 L20.5,2.51923077 L17.5,2.51923077 L17.5,0.5 L12.5,0.5 L12.5,2.51923077 L7.5,2.51923077 L7.5,0.5 L2.5,0.5 L2.5,2.51923077 L0.5,2.51923077 L0.5,14.5 L19.5,14.5 L19.5,14.4807692 L59.5,14.4807692 L59.5,2.5 L57.5,2.5 L57.5,0.5 L52.5,0.5 L52.5,2.5 L47.5,2.5 L47.5,0.5 Z" id="Combined-Shape" stroke="#E6E6E6" fill="#EBEBEB"></path>
    </g>
</svg>