<?xml version="1.0" encoding="UTF-8"?>
<svg width="50px" height="20px" viewBox="0 0 50 20" version="1.1" xmlns="http://www.w3.org/2000/svg" xmlns:xlink="http://www.w3.org/1999/xlink">
    <!-- Generator: Sketch 51.3 (57544) - http://www.bohemiancoding.com/sketch -->
    <title>4/_perspective/red</title>
    <desc>Created with Sketch.</desc>
    <defs></defs>
    <g id="4/_perspective/red" stroke="none" stroke-width="1" fill="none" fill-rule="evenodd">
        <path d="M47.5,0.5 L42.5,0.5 L42.5,2.5 L37.5,2.5 L37.5,0.5 L32.5,0.5 L32.5,2.5 L27.5,2.5 L27.5,0.5 L22.5,0.5 L22.5,2.5 L17.5,2.5 L17.5,0.5 L12.5,0.5 L12.5,2.5 L10.5,2.5 L10.5,13.5 L49.5,13.5 L49.5,2.5 L47.5,2.5 L47.5,0.5 Z" id="Combined-Shape" stroke="#EB3636" fill="#FF5E5E"></path>
        <g id="Group-Copy-3" transform="translate(0.000000, 2.000000)" fill="#FF5E5E" stroke="#EB3636">
            <path d="M40.5,6.30309519 L40.5,17.1204919 L49.5,11.716999 L49.5,0.903095189 L40.5,6.30309519 Z" id="Rectangle"></path>
            <path d="M0.5,6.28736755 L0.5,17.1204916 L9.5,11.716999 L9.5,0.901874965 L0.5,6.28736755 Z" id="Rectangle-Copy"></path>
        </g>
        <path d="M37.5,6.5 L32.5,6.5 L32.5,8.5 L27.5,8.5 L27.5,6.5 L22.5,6.5 L22.5,8.5 L17.5,8.5 L17.5,6.5 L12.5,6.5 L12.5,8.5 L7.5,8.5 L7.5,6.5 L2.5,6.5 L2.5,8.5 L0.5,8.5 L0.5,19.5 L39.5,19.5 L39.5,8.5 L37.5,8.5 L37.5,6.5 Z" id="Combined-Shape" stroke="#EB3636" fill="#FF5E5E"></path>
    </g>
</svg>