<?xml version="1.0" encoding="UTF-8"?>
<svg width="70px" height="20px" viewBox="0 0 70 20" version="1.1" xmlns="http://www.w3.org/2000/svg" xmlns:xlink="http://www.w3.org/1999/xlink">
    <!-- Generator: Sketch 51.3 (57544) - http://www.bohemiancoding.com/sketch -->
    <title>6/_perspective/red</title>
    <desc>Created with Sketch.</desc>
    <defs></defs>
    <g id="6/_perspective/red" stroke="none" stroke-width="1" fill="none" fill-rule="evenodd">
        <path d="M57.5,0.5 L52.5,0.5 L52.5,2.5 L47.5,2.5 L47.5,0.5 L42.5,0.5 L42.5,2.5 L37.5,2.5 L37.5,0.5 L32.5,0.5 L32.5,2.5 L27.5,2.5 L27.5,0.5 L22.5,0.5 L22.5,2.5 L17.5,2.5 L17.5,0.5 L12.5,0.5 L12.5,2.5 L10.5,2.5 L10.5,13.5 L69.5,13.5 L69.5,2.5 L67.5,2.5 L67.5,0.5 L62.5,0.5 L62.5,2.5 L57.5,2.5 L57.5,0.5 Z" id="Combined-Shape" stroke="#EB3636" fill="#FF5E5E"></path>
        <g id="Group-Copy-3" transform="translate(0.000000, 2.000000)" fill="#FF5E5E" stroke="#EB3636">
            <path d="M60.5,6.28358132 L60.5,17.1204919 L69.5,11.716999 L69.5,0.901581325 L60.5,6.28358132 Z" id="Rectangle"></path>
            <path d="M0.5,6.28736755 L0.5,17.1204916 L9.5,11.716999 L9.5,0.901874965 L0.5,6.28736755 Z" id="Rectangle-Copy"></path>
        </g>
        <path d="M47.5,6.5 L42.5,6.5 L42.5,8.5 L37.5,8.5 L37.5,6.5 L32.5,6.5 L32.5,8.5 L27.5,8.5 L27.5,6.5 L22.5,6.5 L22.5,8.5 L17.5,8.5 L17.5,6.5 L12.5,6.5 L12.5,8.5 L7.5,8.5 L7.5,6.5 L2.5,6.5 L2.5,8.5 L0.5,8.5 L0.5,19.5 L59.5,19.5 L59.5,8.5 L57.5,8.5 L57.5,6.5 L52.5,6.5 L52.5,8.5 L47.5,8.5 L47.5,6.5 Z" id="Combined-Shape" stroke="#EB3636" fill="#FF5E5E"></path>
    </g>
</svg>