<?xml version="1.0" encoding="UTF-8"?>
<svg width="100px" height="100px" viewBox="0 0 100 100" version="1.1" xmlns="http://www.w3.org/2000/svg" xmlns:xlink="http://www.w3.org/1999/xlink">
    <!-- Generator: Sketch 51.3 (57544) - http://www.bohemiancoding.com/sketch -->
    <title>bling</title>
    <desc>Created with Sketch.</desc>
    <defs></defs>
    <g id="bling" stroke="none" stroke-width="1" fill="none" fill-rule="evenodd">
        <circle id="Oval-3" fill="#FF5E5E" cx="50" cy="63.5" r="2"></circle>
        <circle id="Oval-3-Copy" fill="#FF5E5E" cx="50" cy="45" r="2"></circle>
        <circle id="Oval-3-Copy-2" fill="#FF5E5E" cx="50" cy="33" r="2"></circle>
        <path d="M57.8874533,59.6935484 L56.3549813,59.6935484 C55.907551,58.923129 55.3296583,58.2382097 54.6442722,57.6764839 L59.2416882,33.754871 L52.1921332,23.1740161 C51.7015217,22.4394516 50.8819983,22 49.9990813,22 C49.1161642,22 48.2966408,22.4394516 47.8060293,23.1740161 L40.7564743,33.754871 L45.3538903,57.6764839 C44.6685042,58.2372903 44.0906115,58.9222097 43.6431812,59.6935484 L42.1107092,59.6935484 L38.9741028,56.554871 L34,61.5322581 L39.5124892,67.0483871 L43.6440999,67.0483871 C44.2890612,68.1598871 45.2142406,69.0856774 46.3250072,69.7310645 L46.3250072,79 L53.6749928,79 L53.6749928,69.7310645 C54.7857594,69.0856774 55.7109388,68.1598871 56.3559001,67.0483871 L60.4875108,67.0483871 L66,61.5322581 L61.0240597,56.554871 L57.8874533,59.6935484 Z M42.8907264,65.2096774 L40.2732127,65.2096774 L38.8950904,63.8306452 L40.542406,62.1822419 L39.243296,60.8822742 L37.5959805,62.5306774 L36.5982199,61.5322581 L38.9741028,59.1548065 L41.3499856,61.5322581 L42.8907264,61.5322581 C42.7382142,62.1215645 42.6490956,62.7347742 42.6490956,63.3709677 C42.6490956,64.0071613 42.7382142,64.620371 42.8907264,65.2096774 Z M51.8365777,33.0322581 C51.8365777,34.0463065 51.0124605,34.8709677 49.9990813,34.8709677 C48.985702,34.8709677 48.1615848,34.0463065 48.1615848,33.0322581 C48.1615848,32.0182097 48.985702,31.1935484 49.9990813,31.1935484 C51.0124605,31.1935484 51.8365777,32.0182097 51.8365777,33.0322581 Z M51.8365777,44.983871 C51.8365777,45.9979194 51.0124605,46.8225806 49.9990813,46.8225806 C48.985702,46.8225806 48.1615848,45.9979194 48.1615848,44.983871 C48.1615848,43.9698226 48.985702,43.1451613 49.9990813,43.1451613 C51.0124605,43.1451613 51.8365777,43.9698226 51.8365777,44.983871 Z M42.7042205,34.1483548 L49.080333,24.5769516 L49.080333,29.4853871 C47.5000861,29.8963387 46.3240884,31.3231774 46.3240884,33.0322581 C46.3240884,34.7413387 47.5000861,36.1681774 49.080333,36.579129 L49.080333,41.437 C47.5000861,41.8479516 46.3240884,43.2747903 46.3240884,44.983871 C46.3240884,46.6929516 47.5000861,48.1197903 49.080333,48.5307419 L49.080333,52.3387097 L50.9178295,52.3387097 L50.9178295,48.5307419 C52.4980764,48.1197903 53.6740741,46.6929516 53.6740741,44.983871 C53.6740741,43.2747903 52.4980764,41.8479516 50.9178295,41.437 L50.9178295,36.579129 C52.4980764,36.1681774 53.6740741,34.7413387 53.6740741,33.0322581 C53.6740741,31.3231774 52.4980764,29.8963387 50.9178295,29.4853871 L50.9178295,24.5769516 L57.293942,34.1483548 L52.9703129,56.6495645 C52.3290267,56.3645645 51.6399655,56.1705806 50.9178295,56.0795645 L50.9178295,54.1774194 L49.080333,54.1774194 L49.080333,56.0795645 C48.358197,56.1705806 47.6691358,56.3636452 47.0278496,56.6495645 L42.7042205,34.1483548 Z M51.8365777,77.1612903 L48.1615848,77.1612903 L48.1615848,75.3225806 L50.9178295,75.3225806 L50.9178295,73.483871 L48.1615848,73.483871 L48.1615848,70.4840161 C48.7505024,70.636629 49.3633075,70.7258065 49.9990813,70.7258065 C50.634855,70.7258065 51.2476601,70.636629 51.8365777,70.4840161 L51.8365777,77.1612903 Z M49.9990813,68.8870968 C46.9589434,68.8870968 44.486592,66.4131129 44.486592,63.3709677 C44.486592,60.3288226 46.9589434,57.8548387 49.9990813,57.8548387 C53.0392191,57.8548387 55.5115705,60.3288226 55.5115705,63.3709677 C55.5115705,66.4131129 53.0392191,68.8870968 49.9990813,68.8870968 Z M62.402182,62.5306774 L60.7548665,60.8822742 L59.4557565,62.1822419 L61.1030721,63.8306452 L59.7249498,65.2096774 L57.1074361,65.2096774 C57.2599483,64.620371 57.3490669,64.0071613 57.3490669,63.3709677 C57.3490669,62.7347742 57.2599483,62.1215645 57.1074361,61.5322581 L58.6481769,61.5322581 L61.0240597,59.1548065 L63.3999426,61.5322581 L62.402182,62.5306774 Z" id="Shape" fill="#EB3636" fill-rule="nonzero"></path>
        <path d="M50,60 C48.06975,60 46.5,61.56975 46.5,63.5 C46.5,65.43025 48.06975,67 50,67 C51.93025,67 53.5,65.43025 53.5,63.5 C53.5,61.56975 51.93025,60 50,60 Z M50,65.25 C49.034875,65.25 48.25,64.465125 48.25,63.5 C48.25,62.534875 49.034875,61.75 50,61.75 C50.965125,61.75 51.75,62.534875 51.75,63.5 C51.75,64.465125 50.965125,65.25 50,65.25 Z" id="Shape" fill="#EB3636" fill-rule="nonzero"></path>
        <rect id="Rectangle-path" fill="#EB3636" fill-rule="nonzero" transform="translate(30.500000, 32.000000) rotate(45.000000) translate(-30.500000, -32.000000) " x="27" y="31" width="7" height="2"></rect>
        <rect id="Rectangle-path" fill="#EB3636" fill-rule="nonzero" x="22" y="44" width="7" height="2"></rect>
        <rect id="Rectangle-path" fill="#EB3636" fill-rule="nonzero" transform="translate(31.000000, 57.500000) rotate(-135.000000) translate(-31.000000, -57.500000) " x="30" y="54" width="2" height="7"></rect>
        <rect id="Rectangle-path" fill="#EB3636" fill-rule="nonzero" transform="translate(69.500000, 58.000000) rotate(-135.000000) translate(-69.500000, -58.000000) " x="66" y="57" width="7" height="2"></rect>
        <rect id="Rectangle-path" fill="#EB3636" fill-rule="nonzero" x="72" y="44" width="7" height="2"></rect>
        <rect id="Rectangle-path" fill="#EB3636" fill-rule="nonzero" transform="translate(70.000000, 31.500000) rotate(45.000000) translate(-70.000000, -31.500000) " x="69" y="28" width="2" height="7"></rect>
    </g>
</svg>