<?xml version="1.0" encoding="UTF-8"?>
<svg width="100px" height="100px" viewBox="0 0 100 100" version="1.1" xmlns="http://www.w3.org/2000/svg" xmlns:xlink="http://www.w3.org/1999/xlink">
    <!-- Generator: Sketch 51.3 (57544) - http://www.bohemiancoding.com/sketch -->
    <title>minion</title>
    <desc>Created with Sketch.</desc>
    <defs></defs>
    <g id="minion" stroke="none" stroke-width="1" fill="none" fill-rule="evenodd">
        <g id="Group" transform="translate(28.000000, 16.000000)" fill-rule="nonzero">
            <path d="M41.1473925,33.3605943 C41.1473925,33.3605943 38.4390569,32.7451757 36.1956522,34.5719655 L36.9208843,38.1521739 L42.0652174,36.8494632 L41.1473925,33.3605943 Z" id="Shape" fill="#EB3636"></path>
            <path d="M39.558571,36.3126475 C37.7632758,36.7213801 36.4313323,38.1374668 36.2236742,39.8582202 C36.0160162,41.5789735 36.9768403,43.2381594 38.6293687,44.0124604 C38.6872673,44.0124604 39.1942333,44.0693784 39.4328886,43.9012718 C40.188395,43.3718021 39.1278617,42.3631623 38.6547876,41.4683586 C38.1939973,40.8866916 38.0747336,40.1273239 38.3371413,39.4458624 C38.599549,38.7644009 39.2087277,38.2514804 39.9596248,38.0797526 L40.013287,38.0691632 L40.0669491,38.0559264 C40.6607801,37.9203387 41.2877558,38.0115494 41.809807,38.3094727 C42.3318582,38.607396 42.7061722,39.0875996 42.8503195,39.6443355 C42.9246205,39.9254166 42.936636,40.2177942 42.8856236,40.5034001 C42.9039817,41.5014504 42.4619751,42.8555692 43.3883531,42.9998496 C43.6834948,43.0448546 44.104319,42.7787961 44.1551568,42.7523226 C45.2432296,41.3533247 45.2837735,39.4663927 44.2566784,38.027464 C43.2295832,36.5885354 41.3533346,35.9037017 39.558571,36.3126475 Z" id="Shape" fill="#EB3636"></path>
            <path d="M38.8135409,27.415934 L35.3167026,29.0810537 C35.2518676,29.108327 35.2137586,29.1586011 35.2176653,29.2117055 C35.2215721,29.2648099 35.2668544,29.3120428 35.3353445,29.3344538 C35.4038347,29.3568649 35.4843097,29.3507818 35.5444821,29.3186451 L39.0413205,27.6525354 C39.1341168,27.6082493 39.1583529,27.5193833 39.0954533,27.4540476 C39.0325537,27.3887119 38.9063372,27.3716479 38.8135409,27.415934" id="Shape" fill="#FF5E5E"></path>
            <path d="M9.11856733,35.2173913 L14.673913,17.7920283 C11.7232816,16.9113829 9.6174597,19.4894451 9.6174597,19.4894451 L4.95653705,26.6378938 L2.93478261,33.7564441 L9.11856733,35.2173913 Z" id="Shape" fill="#FF5E5E"></path>
            <path d="M42.0559899,33.6500762 C41.926023,33.2188848 40.5145823,33.1328699 38.8990937,33.4579391 C37.283605,33.7830082 36.0775121,34.396283 36.2048797,34.8274744 C36.3322473,35.2586658 37.7462872,35.3457977 39.3617759,35.0207286 C40.9772645,34.6956594 42.1833574,34.0868529 42.0559899,33.6500762 Z" id="Shape" fill="#FF5E5E"></path>
            <path d="M42.0652174,33.7565522 L40.0437003,26.6385285 L35.3833247,19.4906086 C35.3833247,19.4906086 33.27775,16.9086604 30.326087,17.7933174 L35.8821586,35.2173913 L42.0652174,33.7565522 Z" id="Shape" fill="#FF5E5E"></path>
            <path d="M5.63891159,35.0204313 C7.2547082,35.3454455 8.66771778,35.2594452 8.79510963,34.8272098 C8.92250148,34.3949743 7.71747858,33.78292 6.10168198,33.4579058 C4.48588537,33.1328916 3.07287579,33.2188919 2.94418402,33.6500104 C2.81549226,34.081129 4.02311498,34.6954171 5.63891159,35.0204313 Z" id="Shape" fill="#FF5E5E"></path>
            <path d="M2.93478261,36.8494632 L8.07911572,38.1521739 L8.80434783,34.5719655 C6.55943849,32.7451757 3.85110284,33.3605943 3.85110284,33.3605943 L2.93478261,36.8494632 Z" id="Shape" fill="#EB3636"></path>
            <path d="M0.125065405,39.3467046 C-0.181530521,40.5257138 0.0819760399,41.7714679 0.845281792,42.7516007 C0.897532785,42.7780774 1.31836511,43.0441676 1.6135126,42.9991573 C2.54273296,42.8548596 2.09789343,41.5005794 2.11625189,40.50241 C2.06523841,40.2167701 2.07725417,39.9243576 2.15155661,39.6432429 C2.29570673,39.0864406 2.67002802,38.6061798 3.19208935,38.3082209 C3.71415069,38.0102621 4.34113863,37.9190405 4.93498112,38.0546444 L4.9886443,38.0678827 L5.04230748,38.0784734 C5.79233669,38.2513924 6.40045722,38.7644222 6.6626799,39.4454712 C6.92490257,40.1265201 6.80649277,40.8853748 6.34717011,41.4674836 C5.8740868,42.3623941 4.81353286,43.372478 5.56905398,43.900687 C5.81053829,44.0688137 6.31327758,44.0132127 6.37258951,44.0118889 C8.19450411,43.1568879 9.15238794,41.2415235 8.6881272,39.3817884 C8.22386646,37.5220533 6.45880827,36.2040397 4.42136897,36.195692 C2.38392967,36.1873444 0.606649267,37.4908447 0.125065405,39.3467046 Z" id="Shape" fill="#EB3636"></path>
            <path d="M6.18797536,27.4160459 C6.09473503,27.3715586 5.96791464,27.3887001 5.90471408,27.4543326 C5.84151352,27.5199651 5.86586557,27.6092348 5.9591059,27.653722 L9.472676,29.3274 C9.56602906,29.3666601 9.68669426,29.3477335 9.74753447,29.2842879 C9.80837468,29.2208422 9.78818512,29.1349904 9.70154546,29.0887293 L6.18797536,27.4160459" id="Shape" fill="#FF5E5E"></path>
            <rect id="rect3249" fill="#FF5E5E" x="19" y="0" width="7.82608696" height="1.95652174"></rect>
            <path d="M31.3043478,4.76320447 L31.2975842,4.76320447 L31.2975842,4.65237648 C30.5901076,2.23719001 28.6665287,1.96947566 26.6063244,1.95652174 L18.9877618,1.95652174 C17.0168375,1.99250485 15.315106,2.43149882 14.6901458,4.49405079 L14.6901458,4.96758855 L14.673913,4.96758855 L14.673913,13.8136768 L14.6901458,13.8136768 L14.6901458,14.0929057 C15.315106,16.1554577 17.0168375,16.5944517 18.9877618,16.6304348 L25.1494366,16.6304348 C25.1629639,16.6074056 25.1737857,16.5843764 25.187313,16.5613472 L26.6022662,16.5613472 C28.6665287,16.5498326 30.5860494,16.2965115 31.293526,14.0180609 L31.293526,13.9504126 L31.3002896,13.9504126 L31.3002896,4.76320447 L31.3043478,4.76320447 Z" id="Shape" fill="#FF5E5E"></path>
            <rect id="rect3253" fill="#FF5E5E" x="18" y="16" width="9.7826087" height="1.95652174"></rect>
            <circle id="Oval" fill="#EB3636" cx="19.5652174" cy="7.82608696" r="1"></circle>
            <circle id="Oval" fill="#EB3636" cx="25.4347826" cy="7.82608696" r="1"></circle>
            <path d="M24.9283359,11.8040918 C24.5463327,12.0667949 24.1513885,12.2894926 23.7466435,12.4704143 C23.3301232,12.651764 22.8971407,12.7449183 22.461588,12.7468884 C22.0913904,12.742647 21.7228535,12.6758797 21.3637036,12.5479862 C20.9152123,12.3892925 20.4790756,12.1667264 20.0618865,11.8836527 C19.9519029,11.7976001 19.8173779,11.8062263 19.7132709,11.9060071 C19.6091639,12.0057879 19.5529113,12.1800114 19.5674949,12.3574997 C19.5820785,12.534988 19.6650557,12.6860142 19.7825266,12.7488775 C20.2401736,13.0585727 20.7183874,13.3024425 21.2100557,13.4768597 C21.6214978,13.6206919 22.0435175,13.6941413 22.4671752,13.6956522 C22.9670749,13.6937219 23.4640604,13.5871648 23.9421955,13.3793976 C24.3794453,13.1871949 24.8057725,12.947819 25.2174734,12.6633495 C25.3349443,12.6004862 25.4179215,12.44946 25.4325051,12.2719718 C25.4470887,12.0944835 25.3908361,11.9202599 25.2867291,11.8204791 C25.1826221,11.7206983 25.0480971,11.7120721 24.9381135,11.7981247 L24.9283359,11.8040918 Z" id="Shape" fill="#EB3636"></path>
            <rect id="Rectangle-path" fill="#FF5E5E" x="23.4782609" y="65.5434783" width="12.7173913" height="2.93478261"></rect>
            <rect id="Rectangle-path" fill="#FF5E5E" x="9.7826087" y="65.5434783" width="12.7173913" height="2.93478261"></rect>
            <path d="M23.5323346,42.0652174 L9.7826087,42.0652174 L9.7826087,65.5434783 L22.4459263,65.5434783 L22.4459263,49.7910047 C22.8009675,49.8983297 23.1813643,49.8916856 23.5323346,49.772029 L23.5323346,65.5434783 L36.1956522,65.5434783 L36.1956522,42.0652174 L23.5323346,42.0652174 Z" id="Shape" fill="#EB3636"></path>
            <rect id="Rectangle-path" fill="#FF5E5E" x="9.7826087" y="42.0652174" width="12.7173913" height="10.7608696"></rect>
            <rect id="Rectangle-path" fill="#FF5E5E" x="23.4782609" y="42.0652174" width="12.7173913" height="10.7608696"></rect>
            <path d="M36.1847882,39.1304348 L32.2370906,19.1902526 C32.2370906,18.3776219 31.5119202,17.7097623 30.5789762,17.6196218 L30.5789762,17.6086957 L30.5681122,17.618256 C30.5029284,17.618256 30.4323125,17.6086957 30.3671286,17.6086957 L15.4644685,17.6086957 C15.4318766,17.6086957 15.4006427,17.6086957 15.3680507,17.6086957 C14.3821449,17.6537659 13.6026545,18.3421119 13.6026545,19.1861553 L9.7826087,39.1263375 L36.1956522,39.1263375 L36.1847882,39.1304348 Z" id="Shape" fill="#FF5E5E"></path>
            <path d="M35.0387466,38.1521739 L9.7826087,38.1521739 L9.7826087,41.5613362 L21.569354,41.5613362 L21.569354,49.5111152 C21.5932265,50.2680784 22.224595,50.8695652 22.9952915,50.8695652 C23.7659879,50.8695652 24.3973564,50.2680784 24.4212289,49.5111152 L24.4212289,41.5613362 L36.1956522,41.5613362 L36.1956522,38.1521739 L35.0387466,38.1521739 Z" id="Shape" fill="#EB3636"></path>
            <polygon id="Shape" fill="#EB3636" points="31.7593706 40.1086957 23.5323346 40.1086957 9.7826087 40.1086957 9.7826087 42.0652174 23.5323346 42.0652174 31.7593706 42.0652174 36.1956522 42.0652174 36.1956522 40.1086957"></polygon>
        </g>
    </g>
</svg>