<?xml version="1.0" encoding="UTF-8"?>
<svg width="100px" height="100px" viewBox="0 0 100 100" version="1.1" xmlns="http://www.w3.org/2000/svg" xmlns:xlink="http://www.w3.org/1999/xlink">
    <!-- Generator: Sketch 51.3 (57544) - http://www.bohemiancoding.com/sketch -->
    <title>monster-truck</title>
    <desc>Created with Sketch.</desc>
    <defs></defs>
    <g id="monster-truck" stroke="none" stroke-width="1" fill="none" fill-rule="evenodd">
        <g id="Group" transform="translate(10.000000, 28.000000)" fill="#EBEBEB" stroke="#E6E6E6">
            <g id="2/gray" transform="translate(10.000000, 12.000000)">
                <path d="M7.5,0.5 L2.5,0.5 L2.5,2.5 L0.5,2.5 L0.5,13.5 L19.5,13.5 L19.5,2.5 L17.5,2.5 L17.5,0.5 L12.5,0.5 L12.5,2.5 L7.5,2.5 L7.5,0.5 Z" id="Combined-Shape"></path>
            </g>
            <g id="2/gray" transform="translate(50.000000, 12.000000)">
                <path d="M7.5,0.5 L2.5,0.5 L2.5,2.5 L0.5,2.5 L0.5,13.5 L19.5,13.5 L19.5,2.5 L17.5,2.5 L17.5,0.5 L12.5,0.5 L12.5,2.5 L7.5,2.5 L7.5,0.5 Z" id="Combined-Shape"></path>
            </g>
            <g id="2/gray" transform="translate(60.000000, 0.000000)">
                <path d="M7.5,0.5 L2.5,0.5 L2.5,2.5 L0.5,2.5 L0.5,13.5 L19.5,13.5 L19.5,2.5 L17.5,2.5 L17.5,0.5 L12.5,0.5 L12.5,2.5 L7.5,2.5 L7.5,0.5 Z" id="Combined-Shape"></path>
            </g>
            <g id="6/gray">
                <path d="M47.5,0.5 L42.5,0.5 L42.5,2.5 L37.5,2.5 L37.5,0.5 L32.5,0.5 L32.5,2.5 L27.5,2.5 L27.5,0.5 L22.5,0.5 L22.5,2.5 L17.5,2.5 L17.5,0.5 L12.5,0.5 L12.5,2.5 L7.5,2.5 L7.5,0.5 L2.5,0.5 L2.5,2.5 L0.5,2.5 L0.5,13.5 L59.5,13.5 L59.5,2.5 L57.5,2.5 L57.5,0.5 L52.5,0.5 L52.5,2.5 L47.5,2.5 L47.5,0.5 Z" id="Combined-Shape"></path>
            </g>
        </g>
        <polygon id="Star-2" stroke="#EB3636" fill="#FF5E5E" points="69.5 65.5418595 68.4408022 74.958384 68.8677139 65.4920975 66.3484876 74.6269939 68.2509967 65.3440368 64.3337737 73.9723737 67.6650342 65.1013232 62.4462694 73.0106422 67.1242546 64.769933 60.7324513 71.7654805 66.6419737 64.3580263 59.2345195 70.2675487 66.230067 63.8757454 57.9893578 68.5537306 65.8986768 63.3349658 57.0276263 66.6662263 65.6559632 62.7490033 56.3730061 64.6515124 65.5079025 62.1322861 56.041616 62.5591978 65.4581405 61.5 56.041616 60.4408022 65.5079025 60.8677139 56.3730061 58.3484876 65.6559632 60.2509967 57.0276263 56.3337737 65.8986768 59.6650342 57.9893578 54.4462694 66.230067 59.1242546 59.2345195 52.7324513 66.6419737 58.6419737 60.7324513 51.2345195 67.1242546 58.230067 62.4462694 49.9893578 67.6650342 57.8986768 64.3337737 49.0276263 68.2509967 57.6559632 66.3484876 48.3730061 68.8677139 57.5079025 68.4408022 48.041616 69.5 57.4581405 70.5591978 48.041616 70.1322861 57.5079025 72.6515124 48.3730061 70.7490033 57.6559632 74.6662263 49.0276263 71.3349658 57.8986768 76.5537306 49.9893578 71.8757454 58.230067 78.2675487 51.2345195 72.3580263 58.6419737 79.7654805 52.7324513 72.769933 59.1242546 81.0106422 54.4462694 73.1013232 59.6650342 81.9723737 56.3337737 73.3440368 60.2509967 82.6269939 58.3484876 73.4920975 60.8677139 82.958384 60.4408022 73.5418595 61.5 82.958384 62.5591978 73.4920975 62.1322861 82.6269939 64.6515124 73.3440368 62.7490033 81.9723737 66.6662263 73.1013232 63.3349658 81.0106422 68.5537306 72.769933 63.8757454 79.7654805 70.2675487 72.3580263 64.3580263 78.2675487 71.7654805 71.8757454 64.769933 76.5537306 73.0106422 71.3349658 65.1013232 74.6662263 73.9723737 70.7490033 65.3440368 72.6515124 74.6269939 70.1322861 65.4920975 70.5591978 74.958384"></polygon>
        <polygon id="Star-2" stroke="#EB3636" fill="#FF5E5E" points="30.5 65.55 29.4408022 74.958384 29.8664404 65.5001378 27.3484876 74.6269939 29.2484812 65.3517789 25.3337737 73.9723737 28.6613385 65.1085764 23.4462694 73.0106422 28.1194697 64.7765188 21.7324513 71.7654805 27.6362175 64.3637825 20.2345195 70.2675487 27.2234812 63.8805303 18.9893578 68.5537306 26.8914236 63.3386615 18.0276263 66.6662263 26.6482211 62.7515188 17.3730061 64.6515124 26.4998622 62.1335596 17.041616 62.5591978 26.45 61.5 17.041616 60.4408022 26.4998622 60.8664404 17.3730061 58.3484876 26.6482211 60.2484812 18.0276263 56.3337737 26.8914236 59.6613385 18.9893578 54.4462694 27.2234812 59.1194697 20.2345195 52.7324513 27.6362175 58.6362175 21.7324513 51.2345195 28.1194697 58.2234812 23.4462694 49.9893578 28.6613385 57.8914236 25.3337737 49.0276263 29.2484812 57.6482211 27.3484876 48.3730061 29.8664404 57.4998622 29.4408022 48.041616 30.5 57.45 31.5591978 48.041616 31.1335596 57.4998622 33.6515124 48.3730061 31.7515188 57.6482211 35.6662263 49.0276263 32.3386615 57.8914236 37.5537306 49.9893578 32.8805303 58.2234812 39.2675487 51.2345195 33.3637825 58.6362175 40.7654805 52.7324513 33.7765188 59.1194697 42.0106422 54.4462694 34.1085764 59.6613385 42.9723737 56.3337737 34.3517789 60.2484812 43.6269939 58.3484876 34.5001378 60.8664404 43.958384 60.4408022 34.55 61.5 43.958384 62.5591978 34.5001378 62.1335596 43.6269939 64.6515124 34.3517789 62.7515188 42.9723737 66.6662263 34.1085764 63.3386615 42.0106422 68.5537306 33.7765188 63.8805303 40.7654805 70.2675487 33.3637825 64.3637825 39.2675487 71.7654805 32.8805303 64.7765188 37.5537306 73.0106422 32.3386615 65.1085764 35.6662263 73.9723737 31.7515188 65.3517789 33.6515124 74.6269939 31.1335596 65.5001378 31.5591978 74.958384"></polygon>
    </g>
</svg>