<?xml version="1.0" encoding="UTF-8"?>
<svg width="100px" height="100px" viewBox="0 0 100 100" version="1.1" xmlns="http://www.w3.org/2000/svg" xmlns:xlink="http://www.w3.org/1999/xlink">
    <!-- Generator: Sketch 51.3 (57544) - http://www.bohemiancoding.com/sketch -->
    <title>spire</title>
    <desc>Created with Sketch.</desc>
    <defs></defs>
    <g id="spire" stroke="none" stroke-width="1" fill="none" fill-rule="evenodd">
        <g id="Group" transform="translate(15.000000, 7.000000)">
            <g id="6/gray" transform="translate(0.000000, 72.000000)" fill="#EBEBEB" stroke="#E6E6E6">
                <path d="M47.5,0.5 L42.5,0.5 L42.5,2.5 L37.5,2.5 L37.5,0.5 L32.5,0.5 L32.5,2.5 L27.5,2.5 L27.5,0.5 L22.5,0.5 L22.5,2.5 L17.5,2.5 L17.5,0.5 L12.5,0.5 L12.5,2.5 L7.5,2.5 L7.5,0.5 L2.5,0.5 L2.5,2.5 L0.5,2.5 L0.5,13.5 L59.5,13.5 L59.5,2.5 L57.5,2.5 L57.5,0.5 L52.5,0.5 L52.5,2.5 L47.5,2.5 L47.5,0.5 Z" id="Combined-Shape"></path>
            </g>
            <g id="4/gray" transform="translate(10.000000, 60.000000)" fill="#EBEBEB" stroke="#E6E6E6">
                <path d="M37.5,0.5 L32.5,0.5 L32.5,2.5 L27.5,2.5 L27.5,0.5 L22.5,0.5 L22.5,2.5 L17.5,2.5 L17.5,0.5 L12.5,0.5 L12.5,2.5 L7.5,2.5 L7.5,0.5 L2.5,0.5 L2.5,2.5 L0.5,2.5 L0.5,13.5 L39.5,13.5 L39.5,2.5 L37.5,2.5 L37.5,0.5 Z" id="Combined-Shape"></path>
            </g>
            <g id="1/gray" transform="translate(10.000000, 48.000000)" fill="#EBEBEB" stroke="#E6E6E6">
                <path d="M0.5,2.5 L0.5,13.5 L9.5,13.5 L9.5,2.5 L7.5,2.5 L7.5,0.5 L2.5,0.5 L2.5,2.5 L0.5,2.5 Z" id="Combined-Shape"></path>
            </g>
            <g id="4/red" transform="translate(30.000000, 48.000000)" fill="#FF5E5E" stroke="#EB3636">
                <path d="M37.5,0.5 L32.5,0.5 L32.5,2.5 L27.5,2.5 L27.5,0.5 L22.5,0.5 L22.5,2.5 L17.5,2.5 L17.5,0.5 L12.5,0.5 L12.5,2.5 L7.5,2.5 L7.5,0.5 L2.5,0.5 L2.5,2.5 L0.5,2.5 L0.5,13.5 L39.5,13.5 L39.5,2.5 L37.5,2.5 L37.5,0.5 Z" id="Combined-Shape"></path>
            </g>
            <g id="2/red" transform="translate(50.000000, 36.000000)" fill="#FF5E5E" stroke="#EB3636">
                <path d="M7.5,0.5 L2.5,0.5 L2.5,2.5 L0.5,2.5 L0.5,13.5 L19.5,13.5 L19.5,2.5 L17.5,2.5 L17.5,0.5 L12.5,0.5 L12.5,2.5 L7.5,2.5 L7.5,0.5 Z" id="Combined-Shape"></path>
            </g>
            <g id="2/red" transform="translate(50.000000, 24.000000)" fill="#FF5E5E" stroke="#EB3636">
                <path d="M7.5,0.5 L2.5,0.5 L2.5,2.5 L0.5,2.5 L0.5,13.5 L19.5,13.5 L19.5,2.5 L17.5,2.5 L17.5,0.5 L12.5,0.5 L12.5,2.5 L7.5,2.5 L7.5,0.5 Z" id="Combined-Shape"></path>
            </g>
            <g id="2/red" transform="translate(50.000000, 12.000000)" fill="#FF5E5E" stroke="#EB3636">
                <path d="M7.5,0.5 L2.5,0.5 L2.5,2.5 L0.5,2.5 L0.5,13.5 L19.5,13.5 L19.5,2.5 L17.5,2.5 L17.5,0.5 L12.5,0.5 L12.5,2.5 L7.5,2.5 L7.5,0.5 Z" id="Combined-Shape"></path>
            </g>
            <g id="1/red" transform="translate(60.000000, 0.000000)" fill="#FF5E5E" stroke="#EB3636">
                <path d="M0.5,2.5 L0.5,13.5 L9.5,13.5 L9.5,2.5 L7.5,2.5 L7.5,0.5 L2.5,0.5 L2.5,2.5 L0.5,2.5 Z" id="Combined-Shape"></path>
            </g>
        </g>
    </g>
</svg>